<?xml version="1.0" encoding="UTF-8" ?>
<svg version="1.1" width="48" height="48" xmlns="http://www.w3.org/2000/svg" shape-rendering="crispEdges">
<rect x="0" y="0" width="48" height="1" fill="#161B2C" />
<rect x="0" y="1" width="20" height="1" fill="#161B2C" />
<rect x="20" y="1" width="8" height="2" fill="#85BB65" />
<rect x="28" y="1" width="20" height="1" fill="#161B2C" />
<rect x="0" y="2" width="17" height="1" fill="#161B2C" />
<rect x="17" y="2" width="3" height="2" fill="#85BB65" />
<rect x="28" y="2" width="3" height="2" fill="#85BB65" />
<rect x="31" y="2" width="17" height="1" fill="#161B2C" />
<rect x="0" y="3" width="15" height="1" fill="#161B2C" />
<rect x="15" y="3" width="2" height="2" fill="#85BB65" />
<rect x="20" y="3" width="1" height="1" fill="#244A40" />
<rect x="21" y="3" width="7" height="4" fill="#2C5C4F" />
<rect x="31" y="3" width="2" height="2" fill="#85BB65" />
<rect x="33" y="3" width="15" height="1" fill="#161B2C" />
<rect x="0" y="4" width="13" height="1" fill="#161B2C" />
<rect x="13" y="4" width="2" height="2" fill="#85BB65" />
<rect x="17" y="4" width="3" height="1" fill="#244A40" />
<rect x="20" y="4" width="1" height="3" fill="#2C5C4F" />
<rect x="28" y="4" width="3" height="9" fill="#2C5C4F" />
<rect x="33" y="4" width="2" height="2" fill="#85BB65" />
<rect x="35" y="4" width="13" height="1" fill="#161B2C" />
<rect x="0" y="5" width="12" height="1" fill="#161B2C" />
<rect x="12" y="5" width="1" height="2" fill="#85BB65" />
<rect x="15" y="5" width="2" height="1" fill="#244A40" />
<rect x="17" y="5" width="3" height="2" fill="#2C5C4F" />
<rect x="31" y="5" width="2" height="14" fill="#2C5C4F" />
<rect x="35" y="5" width="1" height="2" fill="#85BB65" />
<rect x="36" y="5" width="12" height="1" fill="#161B2C" />
<rect x="0" y="6" width="10" height="1" fill="#161B2C" />
<rect x="10" y="6" width="2" height="2" fill="#85BB65" />
<rect x="13" y="6" width="2" height="1" fill="#244A40" />
<rect x="15" y="6" width="2" height="10" fill="#2C5C4F" />
<rect x="33" y="6" width="2" height="18" fill="#2C5C4F" />
<rect x="36" y="6" width="2" height="2" fill="#85BB65" />
<rect x="38" y="6" width="10" height="1" fill="#161B2C" />
<rect x="0" y="7" width="9" height="1" fill="#161B2C" />
<rect x="9" y="7" width="1" height="2" fill="#85BB65" />
<rect x="12" y="7" width="1" height="1" fill="#244A40" />
<rect x="13" y="7" width="2" height="32" fill="#2C5C4F" />
<rect x="17" y="7" width="1" height="8" fill="#2C5C4F" />
<rect x="18" y="7" width="3" height="4" fill="#85BB65" />
<rect x="21" y="7" width="1" height="2" fill="#244A40" />
<rect x="22" y="7" width="6" height="2" fill="#2C5C4F" />
<rect x="35" y="7" width="1" height="31" fill="#2C5C4F" />
<rect x="38" y="7" width="1" height="3" fill="#85BB65" />
<rect x="39" y="7" width="9" height="1" fill="#161B2C" />
<rect x="0" y="8" width="8" height="1" fill="#161B2C" />
<rect x="8" y="8" width="1" height="3" fill="#85BB65" />
<rect x="10" y="8" width="2" height="1" fill="#244A40" />
<rect x="12" y="8" width="1" height="29" fill="#2C5C4F" />
<rect x="36" y="8" width="1" height="29" fill="#2C5C4F" />
<rect x="37" y="8" width="1" height="1" fill="#85BB65" />
<rect x="39" y="8" width="1" height="3" fill="#85BB65" />
<rect x="40" y="8" width="8" height="1" fill="#161B2C" />
<rect x="0" y="9" width="7" height="1" fill="#161B2C" />
<rect x="7" y="9" width="1" height="3" fill="#85BB65" />
<rect x="9" y="9" width="2" height="1" fill="#244A40" />
<rect x="11" y="9" width="1" height="27" fill="#2C5C4F" />
<rect x="21" y="9" width="1" height="11" fill="#85BB65" />
<rect x="22" y="9" width="1" height="3" fill="#244A40" />
<rect x="23" y="9" width="5" height="3" fill="#2C5C4F" />
<rect x="37" y="9" width="1" height="28" fill="#2C5C4F" />
<rect x="40" y="9" width="1" height="3" fill="#85BB65" />
<rect x="41" y="9" width="7" height="1" fill="#161B2C" />
<rect x="0" y="10" width="6" height="1" fill="#161B2C" />
<rect x="6" y="10" width="1" height="4" fill="#85BB65" />
<rect x="9" y="10" width="1" height="1" fill="#244A40" />
<rect x="10" y="10" width="1" height="26" fill="#2C5C4F" />
<rect x="38" y="10" width="1" height="26" fill="#2C5C4F" />
<rect x="41" y="10" width="1" height="4" fill="#85BB65" />
<rect x="42" y="10" width="6" height="2" fill="#161B2C" />
<rect x="0" y="11" width="5" height="2" fill="#161B2C" />
<rect x="5" y="11" width="1" height="5" fill="#85BB65" />
<rect x="8" y="11" width="1" height="1" fill="#244A40" />
<rect x="9" y="11" width="1" height="23" fill="#2C5C4F" />
<rect x="18" y="11" width="1" height="1" fill="#244A40" />
<rect x="19" y="11" width="2" height="6" fill="#85BB65" />
<rect x="39" y="11" width="1" height="23" fill="#2C5C4F" />
<rect x="7" y="12" width="1" height="3" fill="#244A40" />
<rect x="8" y="12" width="1" height="21" fill="#2C5C4F" />
<rect x="18" y="12" width="1" height="2" fill="#2C5C4F" />
<rect x="22" y="12" width="5" height="3" fill="#85BB65" />
<rect x="27" y="12" width="1" height="1" fill="#244A40" />
<rect x="40" y="12" width="1" height="21" fill="#2C5C4F" />
<rect x="42" y="12" width="1" height="4" fill="#85BB65" />
<rect x="43" y="12" width="5" height="2" fill="#161B2C" />
<rect x="0" y="13" width="4" height="2" fill="#161B2C" />
<rect x="4" y="13" width="1" height="6" fill="#85BB65" />
<rect x="27" y="13" width="1" height="4" fill="#85BB65" />
<rect x="28" y="13" width="1" height="1" fill="#244A40" />
<rect x="29" y="13" width="2" height="1" fill="#2C5C4F" />
<rect x="6" y="14" width="1" height="2" fill="#244A40" />
<rect x="18" y="14" width="1" height="10" fill="#85BB65" />
<rect x="28" y="14" width="1" height="3" fill="#85BB65" />
<rect x="29" y="14" width="1" height="4" fill="#244A40" />
<rect x="30" y="14" width="1" height="5" fill="#2C5C4F" />
<rect x="41" y="14" width="1" height="17" fill="#2C5C4F" />
<rect x="43" y="14" width="1" height="5" fill="#85BB65" />
<rect x="44" y="14" width="4" height="2" fill="#161B2C" />
<rect x="0" y="15" width="3" height="3" fill="#161B2C" />
<rect x="3" y="15" width="1" height="14" fill="#85BB65" />
<rect x="7" y="15" width="1" height="16" fill="#2C5C4F" />
<rect x="17" y="15" width="1" height="8" fill="#85BB65" />
<rect x="22" y="15" width="2" height="10" fill="#85BB65" />
<rect x="24" y="15" width="1" height="3" fill="#244A40" />
<rect x="25" y="15" width="2" height="1" fill="#85BB65" />
<rect x="5" y="16" width="1" height="3" fill="#244A40" />
<rect x="6" y="16" width="1" height="13" fill="#2C5C4F" />
<rect x="15" y="16" width="1" height="24" fill="#2C5C4F" />
<rect x="16" y="16" width="1" height="6" fill="#85BB65" />
<rect x="25" y="16" width="1" height="5" fill="#244A40" />
<rect x="26" y="16" width="1" height="1" fill="#85BB65" />
<rect x="42" y="16" width="1" height="13" fill="#2C5C4F" />
<rect x="44" y="16" width="1" height="14" fill="#85BB65" />
<rect x="45" y="16" width="3" height="2" fill="#161B2C" />
<rect x="19" y="17" width="1" height="1" fill="#85BB65" />
<rect x="20" y="17" width="1" height="1" fill="#244A40" />
<rect x="26" y="17" width="3" height="1" fill="#244A40" />
<rect x="0" y="18" width="2" height="30" fill="#161B2C" />
<rect x="2" y="18" width="1" height="9" fill="#85BB65" />
<rect x="19" y="18" width="1" height="2" fill="#244A40" />
<rect x="20" y="18" width="1" height="3" fill="#2C5C4F" />
<rect x="24" y="18" width="1" height="10" fill="#85BB65" />
<rect x="26" y="18" width="4" height="1" fill="#2C5C4F" />
<rect x="45" y="18" width="1" height="9" fill="#85BB65" />
<rect x="46" y="18" width="2" height="30" fill="#161B2C" />
<rect x="4" y="19" width="1" height="7" fill="#244A40" />
<rect x="5" y="19" width="1" height="7" fill="#2C5C4F" />
<rect x="26" y="19" width="2" height="1" fill="#2C5C4F" />
<rect x="28" y="19" width="3" height="5" fill="#85BB65" />
<rect x="31" y="19" width="1" height="2" fill="#244A40" />
<rect x="32" y="19" width="1" height="2" fill="#2C5C4F" />
<rect x="43" y="19" width="1" height="7" fill="#2C5C4F" />
<rect x="19" y="20" width="1" height="4" fill="#85BB65" />
<rect x="21" y="20" width="1" height="1" fill="#2C5C4F" />
<rect x="26" y="20" width="1" height="1" fill="#2C5C4F" />
<rect x="27" y="20" width="1" height="4" fill="#85BB65" />
<rect x="20" y="21" width="2" height="4" fill="#85BB65" />
<rect x="25" y="21" width="2" height="12" fill="#85BB65" />
<rect x="31" y="21" width="1" height="9" fill="#85BB65" />
<rect x="32" y="21" width="1" height="3" fill="#244A40" />
<rect x="16" y="22" width="1" height="1" fill="#244A40" />
<rect x="16" y="23" width="1" height="6" fill="#2C5C4F" />
<rect x="17" y="23" width="1" height="1" fill="#244A40" />
<rect x="17" y="24" width="1" height="5" fill="#2C5C4F" />
<rect x="18" y="24" width="2" height="1" fill="#244A40" />
<rect x="27" y="24" width="2" height="1" fill="#244A40" />
<rect x="29" y="24" width="2" height="2" fill="#85BB65" />
<rect x="32" y="24" width="1" height="5" fill="#85BB65" />
<rect x="33" y="24" width="1" height="5" fill="#244A40" />
<rect x="34" y="24" width="1" height="15" fill="#2C5C4F" />
<rect x="18" y="25" width="2" height="4" fill="#2C5C4F" />
<rect x="20" y="25" width="4" height="1" fill="#244A40" />
<rect x="27" y="25" width="1" height="1" fill="#244A40" />
<rect x="28" y="25" width="1" height="1" fill="#2C5C4F" />
<rect x="4" y="26" width="1" height="5" fill="#85BB65" />
<rect x="5" y="26" width="1" height="3" fill="#244A40" />
<rect x="20" y="26" width="4" height="4" fill="#2C5C4F" />
<rect x="27" y="26" width="1" height="13" fill="#85BB65" />
<rect x="28" y="26" width="2" height="1" fill="#244A40" />
<rect x="30" y="26" width="1" height="5" fill="#85BB65" />
<rect x="43" y="26" width="1" height="6" fill="#85BB65" />
<rect x="2" y="27" width="1" height="21" fill="#161B2C" />
<rect x="28" y="27" width="1" height="1" fill="#244A40" />
<rect x="29" y="27" width="1" height="12" fill="#85BB65" />
<rect x="45" y="27" width="1" height="21" fill="#161B2C" />
<rect x="24" y="28" width="1" height="2" fill="#2C5C4F" />
<rect x="28" y="28" width="1" height="11" fill="#85BB65" />
<rect x="3" y="29" width="1" height="19" fill="#161B2C" />
<rect x="5" y="29" width="1" height="4" fill="#85BB65" />
<rect x="6" y="29" width="1" height="2" fill="#244A40" />
<rect x="16" y="29" width="4" height="3" fill="#85BB65" />
<rect x="32" y="29" width="1" height="1" fill="#244A40" />
<rect x="33" y="29" width="1" height="10" fill="#2C5C4F" />
<rect x="42" y="29" width="1" height="5" fill="#85BB65" />
<rect x="20" y="30" width="5" height="3" fill="#85BB65" />
<rect x="31" y="30" width="1" height="1" fill="#244A40" />
<rect x="32" y="30" width="1" height="10" fill="#2C5C4F" />
<rect x="44" y="30" width="1" height="18" fill="#161B2C" />
<rect x="4" y="31" width="1" height="17" fill="#161B2C" />
<rect x="6" y="31" width="1" height="4" fill="#85BB65" />
<rect x="7" y="31" width="1" height="2" fill="#244A40" />
<rect x="30" y="31" width="1" height="4" fill="#244A40" />
<rect x="31" y="31" width="1" height="4" fill="#2C5C4F" />
<rect x="41" y="31" width="1" height="4" fill="#85BB65" />
<rect x="16" y="32" width="2" height="1" fill="#244A40" />
<rect x="18" y="32" width="2" height="1" fill="#85BB65" />
<rect x="43" y="32" width="1" height="16" fill="#161B2C" />
<rect x="5" y="33" width="1" height="15" fill="#161B2C" />
<rect x="7" y="33" width="1" height="3" fill="#85BB65" />
<rect x="8" y="33" width="1" height="1" fill="#244A40" />
<rect x="16" y="33" width="2" height="7" fill="#2C5C4F" />
<rect x="18" y="33" width="8" height="1" fill="#244A40" />
<rect x="26" y="33" width="1" height="1" fill="#85BB65" />
<rect x="40" y="33" width="1" height="4" fill="#85BB65" />
<rect x="8" y="34" width="1" height="3" fill="#85BB65" />
<rect x="9" y="34" width="1" height="2" fill="#244A40" />
<rect x="18" y="34" width="9" height="7" fill="#2C5C4F" />
<rect x="39" y="34" width="1" height="4" fill="#85BB65" />
<rect x="42" y="34" width="1" height="14" fill="#161B2C" />
<rect x="6" y="35" width="1" height="13" fill="#161B2C" />
<rect x="30" y="35" width="1" height="4" fill="#85BB65" />
<rect x="31" y="35" width="1" height="4" fill="#244A40" />
<rect x="41" y="35" width="1" height="13" fill="#161B2C" />
<rect x="7" y="36" width="1" height="12" fill="#161B2C" />
<rect x="9" y="36" width="1" height="2" fill="#85BB65" />
<rect x="10" y="36" width="2" height="1" fill="#244A40" />
<rect x="38" y="36" width="1" height="2" fill="#85BB65" />
<rect x="8" y="37" width="1" height="11" fill="#161B2C" />
<rect x="10" y="37" width="2" height="2" fill="#85BB65" />
<rect x="12" y="37" width="1" height="1" fill="#244A40" />
<rect x="36" y="37" width="2" height="2" fill="#85BB65" />
<rect x="40" y="37" width="1" height="11" fill="#161B2C" />
<rect x="9" y="38" width="1" height="10" fill="#161B2C" />
<rect x="12" y="38" width="1" height="2" fill="#85BB65" />
<rect x="35" y="38" width="1" height="2" fill="#85BB65" />
<rect x="38" y="38" width="2" height="10" fill="#161B2C" />
<rect x="10" y="39" width="2" height="9" fill="#161B2C" />
<rect x="13" y="39" width="2" height="2" fill="#85BB65" />
<rect x="27" y="39" width="5" height="1" fill="#2C5C4F" />
<rect x="33" y="39" width="2" height="2" fill="#85BB65" />
<rect x="36" y="39" width="2" height="9" fill="#161B2C" />
<rect x="12" y="40" width="1" height="8" fill="#161B2C" />
<rect x="15" y="40" width="2" height="2" fill="#85BB65" />
<rect x="17" y="40" width="1" height="1" fill="#2C5C4F" />
<rect x="27" y="40" width="4" height="1" fill="#2C5C4F" />
<rect x="31" y="40" width="2" height="2" fill="#85BB65" />
<rect x="35" y="40" width="1" height="8" fill="#161B2C" />
<rect x="13" y="41" width="2" height="7" fill="#161B2C" />
<rect x="17" y="41" width="3" height="2" fill="#85BB65" />
<rect x="20" y="41" width="8" height="1" fill="#2C5C4F" />
<rect x="28" y="41" width="3" height="2" fill="#85BB65" />
<rect x="33" y="41" width="2" height="7" fill="#161B2C" />
<rect x="15" y="42" width="2" height="6" fill="#161B2C" />
<rect x="20" y="42" width="8" height="2" fill="#85BB65" />
<rect x="31" y="42" width="2" height="6" fill="#161B2C" />
<rect x="17" y="43" width="3" height="5" fill="#161B2C" />
<rect x="28" y="43" width="3" height="5" fill="#161B2C" />
<rect x="20" y="44" width="8" height="4" fill="#161B2C" />
</svg>